REM DIRINDEX 1\2\4,1\2\5,1\2\6,1\3\7,1\3\8
REM DIRNAME folder01,folder02,folder03,folder04,folder05,folder06,folder07,folder08
TITLE ""
FILE "033_Lesson 28_Output_Stage.mp3" MP3
  TRACK 01 AUDIO
    TITLE "0:"
    INDEX 01 00:00:00
  TRACK 02 AUDIO
    TITLE "8:cjc128_3775"
    INDEX 01 00:00:11
  TRACK 03 AUDIO
    TITLE "0:"
    INDEX 01 00:03:15
  TRACK 04 AUDIO
    TITLE "8:cjc128_3776"
    INDEX 01 00:03:43
  TRACK 05 AUDIO
    TITLE "0:"
    INDEX 01 00:05:38
  TRACK 06 AUDIO
    TITLE "7:cjc128_3777"
    INDEX 01 00:06:28
  TRACK 07 AUDIO
    TITLE "0:"
    INDEX 01 00:09:04
  TRACK 08 AUDIO
    TITLE "8:cjc128_3778"
    INDEX 01 00:12:52
  TRACK 09 AUDIO
    TITLE "0:"
    INDEX 01 00:14:60
  TRACK 10 AUDIO
    TITLE "7:cjc128_3779"
    INDEX 01 00:15:40
  TRACK 11 AUDIO
    TITLE "0:"
    INDEX 01 00:18:42
  TRACK 12 AUDIO
    TITLE "8:cjc128_3780"
    INDEX 01 00:21:74
  TRACK 13 AUDIO
    TITLE "0:"
    INDEX 01 00:24:02
  TRACK 14 AUDIO
    TITLE "7:cjc128_3781"
    INDEX 01 00:24:45
  TRACK 15 AUDIO
    TITLE "0:"
    INDEX 01 00:27:67
  TRACK 16 AUDIO
    TITLE "8:cjc128_3782"
    INDEX 01 00:31:39
  TRACK 17 AUDIO
    TITLE "0:"
    INDEX 01 00:33:32
  TRACK 18 AUDIO
    TITLE "7:cjc128_3783"
    INDEX 01 00:34:20
  TRACK 19 AUDIO
    TITLE "0:"
    INDEX 01 00:37:44
  TRACK 20 AUDIO
    TITLE "8:cjc128_3784"
    INDEX 01 00:41:47
  TRACK 21 AUDIO
    TITLE "0:"
    INDEX 01 00:43:48
  TRACK 22 AUDIO
    TITLE "7:cjc128_3785"
    INDEX 01 00:44:50
  TRACK 23 AUDIO
    TITLE "0:"
    INDEX 01 00:47:58
  TRACK 24 AUDIO
    TITLE "8:cjc128_3786"
    INDEX 01 00:51:60
  TRACK 25 AUDIO
    TITLE "0:"
    INDEX 01 00:53:57
  TRACK 26 AUDIO
    TITLE "7:cjc128_3787"
    INDEX 01 00:54:58
  TRACK 27 AUDIO
    TITLE "0:"
    INDEX 01 00:58:32
  TRACK 28 AUDIO
    TITLE "8:cjc128_3788"
    INDEX 01 01:02:71
  TRACK 29 AUDIO
    TITLE "0:"
    INDEX 01 01:04:68
  TRACK 30 AUDIO
    TITLE "7:cjc128_3789"
    INDEX 01 01:05:44
  TRACK 31 AUDIO
    TITLE "0:"
    INDEX 01 01:08:48
  TRACK 32 AUDIO
    TITLE "8:cjc128_3790"
    INDEX 01 01:12:21
  TRACK 33 AUDIO
    TITLE "0:"
    INDEX 01 01:14:08
  TRACK 34 AUDIO
    TITLE "7:cjc128_3791"
    INDEX 01 01:14:63
  TRACK 35 AUDIO
    TITLE "0:"
    INDEX 01 01:18:09
  TRACK 36 AUDIO
    TITLE "8:cjc128_3792"
    INDEX 01 01:22:25
  TRACK 37 AUDIO
    TITLE "0:"
    INDEX 01 01:24:20
  TRACK 38 AUDIO
    TITLE "7:cjc128_3793"
    INDEX 01 01:24:67
  TRACK 39 AUDIO
    TITLE "0:"
    INDEX 01 01:29:19
  TRACK 40 AUDIO
    TITLE "8:cjc128_3794"
    INDEX 01 01:33:70
  TRACK 41 AUDIO
    TITLE "0:"
    INDEX 01 01:35:43
  TRACK 42 AUDIO
    TITLE "7:cjc128_3795"
    INDEX 01 01:36:27
  TRACK 43 AUDIO
    TITLE "0:"
    INDEX 01 01:39:53
  TRACK 44 AUDIO
    TITLE "8:cjc128_3796"
    INDEX 01 01:43:58
  TRACK 45 AUDIO
    TITLE "0:"
    INDEX 01 01:45:55
  TRACK 46 AUDIO
    TITLE "7:cjc128_3797"
    INDEX 01 01:46:35
  TRACK 47 AUDIO
    TITLE "0:"
    INDEX 01 01:49:18
  TRACK 48 AUDIO
    TITLE "8:cjc128_3798"
    INDEX 01 01:52:42
  TRACK 49 AUDIO
    TITLE "0:"
    INDEX 01 01:54:35
  TRACK 50 AUDIO
    TITLE "7:cjc128_3799"
    INDEX 01 01:55:16
  TRACK 51 AUDIO
    TITLE "0:"
    INDEX 01 01:59:53
  TRACK 52 AUDIO
    TITLE "8:cjc128_3800"
    INDEX 01 02:04:57
  TRACK 53 AUDIO
    TITLE "0:"
    INDEX 01 02:06:54
  TRACK 54 AUDIO
    TITLE "7:cjc128_3801"
    INDEX 01 02:07:31
  TRACK 55 AUDIO
    TITLE "0:"
    INDEX 01 02:10:63
  TRACK 56 AUDIO
    TITLE "8:cjc128_3802"
    INDEX 01 02:14:49
  TRACK 57 AUDIO
    TITLE "0:"
    INDEX 01 02:16:44
  TRACK 58 AUDIO
    TITLE "7:cjc128_3803"
    INDEX 01 02:17:20
  TRACK 59 AUDIO
    TITLE "0:"
    INDEX 01 02:21:47
  TRACK 60 AUDIO
    TITLE "8:cjc128_3804"
    INDEX 01 02:26:19
  TRACK 61 AUDIO
    TITLE "0:"
    INDEX 01 02:28:22
  TRACK 62 AUDIO
    TITLE "7:cjc128_3805"
    INDEX 01 02:29:25
  TRACK 63 AUDIO
    TITLE "0:"
    INDEX 01 02:33:43
  TRACK 64 AUDIO
    TITLE "8:cjc128_3806"
    INDEX 01 02:38:34
  TRACK 65 AUDIO
    TITLE "0:"
    INDEX 01 02:40:35
  TRACK 66 AUDIO
    TITLE "7:cjc128_3807"
    INDEX 01 02:41:24
  TRACK 67 AUDIO
    TITLE "0:"
    INDEX 01 02:44:66
  TRACK 68 AUDIO
    TITLE "8:cjc128_3808"
    INDEX 01 02:49:00
  TRACK 69 AUDIO
    TITLE "0:"
    INDEX 01 02:50:74
  TRACK 70 AUDIO
    TITLE "7:cjc128_3809"
    INDEX 01 02:51:50
  TRACK 71 AUDIO
    TITLE "0:"
    INDEX 01 02:54:56
  TRACK 72 AUDIO
    TITLE "8:cjc128_3810"
    INDEX 01 02:58:25
  TRACK 73 AUDIO
    TITLE "0:"
    INDEX 01 03:00:18
  TRACK 74 AUDIO
    TITLE "7:cjc128_3811"
    INDEX 01 03:01:02
  TRACK 75 AUDIO
    TITLE "0:"
    INDEX 01 03:04:51
  TRACK 76 AUDIO
    TITLE "8:cjc128_3812"
    INDEX 01 03:08:64
  TRACK 77 AUDIO
    TITLE "0:"
    INDEX 01 03:10:65
  TRACK 78 AUDIO
    TITLE "7:cjc128_3813"
    INDEX 01 03:11:41
  TRACK 79 AUDIO
    TITLE "0:"
    INDEX 01 03:15:10
  TRACK 80 AUDIO
    TITLE "8:cjc128_3814"
    INDEX 01 03:19:21
  TRACK 81 AUDIO
    TITLE "0:"
    INDEX 01 03:20:60
  TRACK 82 AUDIO
    TITLE "7:cjc128_3815"
    INDEX 01 03:21:45
  TRACK 83 AUDIO
    TITLE "0:"
    INDEX 01 03:24:42
  TRACK 84 AUDIO
    TITLE "8:cjc128_3816"
    INDEX 01 03:28:02
  TRACK 85 AUDIO
    TITLE "0:"
    INDEX 01 03:29:59
  TRACK 86 AUDIO
    TITLE "7:cjc128_3817"
    INDEX 01 03:30:46
  TRACK 87 AUDIO
    TITLE "0:"
    INDEX 01 03:34:68
